<?xml version="1.0" encoding="utf-8"?>
<svg xmlns="http://www.w3.org/2000/svg" xmlns:xlink="http://www.w3.org/1999/xlink" style="margin: auto; background: rgba(255, 255, 255, 0); display: block; shape-rendering: auto;" width="241px" height="241px" viewBox="0 0 100 100" preserveAspectRatio="xMidYMid">
<g transform="rotate(0 50 50)">
  <rect x="48.5" y="18" rx="1.5" ry="9" width="3" height="18" fill="#fe718d">
    <animate attributeName="opacity" values="1;0" keyTimes="0;1" dur="0.5434782608695652s" begin="-0.5148741418764302s" repeatCount="indefinite"></animate>
  </rect>
</g><g transform="rotate(18.94736842105263 50 50)">
  <rect x="48.5" y="18" rx="1.5" ry="9" width="3" height="18" fill="#f47e60">
    <animate attributeName="opacity" values="1;0" keyTimes="0;1" dur="0.5434782608695652s" begin="-0.4862700228832952s" repeatCount="indefinite"></animate>
  </rect>
</g><g transform="rotate(37.89473684210526 50 50)">
  <rect x="48.5" y="18" rx="1.5" ry="9" width="3" height="18" fill="#f8b26a">
    <animate attributeName="opacity" values="1;0" keyTimes="0;1" dur="0.5434782608695652s" begin="-0.45766590389016015s" repeatCount="indefinite"></animate>
  </rect>
</g><g transform="rotate(56.8421052631579 50 50)">
  <rect x="48.5" y="18" rx="1.5" ry="9" width="3" height="18" fill="#abbd81">
    <animate attributeName="opacity" values="1;0" keyTimes="0;1" dur="0.5434782608695652s" begin="-0.4290617848970252s" repeatCount="indefinite"></animate>
  </rect>
</g><g transform="rotate(75.78947368421052 50 50)">
  <rect x="48.5" y="18" rx="1.5" ry="9" width="3" height="18" fill="#849b87">
    <animate attributeName="opacity" values="1;0" keyTimes="0;1" dur="0.5434782608695652s" begin="-0.40045766590389015s" repeatCount="indefinite"></animate>
  </rect>
</g><g transform="rotate(94.73684210526316 50 50)">
  <rect x="48.5" y="18" rx="1.5" ry="9" width="3" height="18" fill="#6492ac">
    <animate attributeName="opacity" values="1;0" keyTimes="0;1" dur="0.5434782608695652s" begin="-0.3718535469107551s" repeatCount="indefinite"></animate>
  </rect>
</g><g transform="rotate(113.6842105263158 50 50)">
  <rect x="48.5" y="18" rx="1.5" ry="9" width="3" height="18" fill="#637cb5">
    <animate attributeName="opacity" values="1;0" keyTimes="0;1" dur="0.5434782608695652s" begin="-0.34324942791762014s" repeatCount="indefinite"></animate>
  </rect>
</g><g transform="rotate(132.6315789473684 50 50)">
  <rect x="48.5" y="18" rx="1.5" ry="9" width="3" height="18" fill="#6a63b6">
    <animate attributeName="opacity" values="1;0" keyTimes="0;1" dur="0.5434782608695652s" begin="-0.3146453089244851s" repeatCount="indefinite"></animate>
  </rect>
</g><g transform="rotate(151.57894736842104 50 50)">
  <rect x="48.5" y="18" rx="1.5" ry="9" width="3" height="18" fill="#fe718d">
    <animate attributeName="opacity" values="1;0" keyTimes="0;1" dur="0.5434782608695652s" begin="-0.2860411899313501s" repeatCount="indefinite"></animate>
  </rect>
</g><g transform="rotate(170.52631578947367 50 50)">
  <rect x="48.5" y="18" rx="1.5" ry="9" width="3" height="18" fill="#f47e60">
    <animate attributeName="opacity" values="1;0" keyTimes="0;1" dur="0.5434782608695652s" begin="-0.2574370709382151s" repeatCount="indefinite"></animate>
  </rect>
</g><g transform="rotate(189.47368421052633 50 50)">
  <rect x="48.5" y="18" rx="1.5" ry="9" width="3" height="18" fill="#f8b26a">
    <animate attributeName="opacity" values="1;0" keyTimes="0;1" dur="0.5434782608695652s" begin="-0.22883295194508008s" repeatCount="indefinite"></animate>
  </rect>
</g><g transform="rotate(208.42105263157896 50 50)">
  <rect x="48.5" y="18" rx="1.5" ry="9" width="3" height="18" fill="#abbd81">
    <animate attributeName="opacity" values="1;0" keyTimes="0;1" dur="0.5434782608695652s" begin="-0.20022883295194507s" repeatCount="indefinite"></animate>
  </rect>
</g><g transform="rotate(227.3684210526316 50 50)">
  <rect x="48.5" y="18" rx="1.5" ry="9" width="3" height="18" fill="#849b87">
    <animate attributeName="opacity" values="1;0" keyTimes="0;1" dur="0.5434782608695652s" begin="-0.17162471395881007s" repeatCount="indefinite"></animate>
  </rect>
</g><g transform="rotate(246.31578947368422 50 50)">
  <rect x="48.5" y="18" rx="1.5" ry="9" width="3" height="18" fill="#6492ac">
    <animate attributeName="opacity" values="1;0" keyTimes="0;1" dur="0.5434782608695652s" begin="-0.14302059496567504s" repeatCount="indefinite"></animate>
  </rect>
</g><g transform="rotate(265.2631578947368 50 50)">
  <rect x="48.5" y="18" rx="1.5" ry="9" width="3" height="18" fill="#637cb5">
    <animate attributeName="opacity" values="1;0" keyTimes="0;1" dur="0.5434782608695652s" begin="-0.11441647597254004s" repeatCount="indefinite"></animate>
  </rect>
</g><g transform="rotate(284.2105263157895 50 50)">
  <rect x="48.5" y="18" rx="1.5" ry="9" width="3" height="18" fill="#6a63b6">
    <animate attributeName="opacity" values="1;0" keyTimes="0;1" dur="0.5434782608695652s" begin="-0.08581235697940504s" repeatCount="indefinite"></animate>
  </rect>
</g><g transform="rotate(303.1578947368421 50 50)">
  <rect x="48.5" y="18" rx="1.5" ry="9" width="3" height="18" fill="#fe718d">
    <animate attributeName="opacity" values="1;0" keyTimes="0;1" dur="0.5434782608695652s" begin="-0.05720823798627002s" repeatCount="indefinite"></animate>
  </rect>
</g><g transform="rotate(322.10526315789474 50 50)">
  <rect x="48.5" y="18" rx="1.5" ry="9" width="3" height="18" fill="#f47e60">
    <animate attributeName="opacity" values="1;0" keyTimes="0;1" dur="0.5434782608695652s" begin="-0.02860411899313501s" repeatCount="indefinite"></animate>
  </rect>
</g><g transform="rotate(341.05263157894734 50 50)">
  <rect x="48.5" y="18" rx="1.5" ry="9" width="3" height="18" fill="#f8b26a">
    <animate attributeName="opacity" values="1;0" keyTimes="0;1" dur="0.5434782608695652s" begin="0s" repeatCount="indefinite"></animate>
  </rect>
</g>
<!-- [ldio] generated by https://loading.io/ --></svg>